<?xml version="1.0" encoding="utf-8"?>
<!-- Generator: Adobe Illustrator 16.0.0, SVG Export Plug-In . SVG Version: 6.00 Build 0)  -->
<!DOCTYPE svg PUBLIC "-//W3C//DTD SVG 1.1//EN" "http://www.w3.org/Graphics/SVG/1.1/DTD/svg11.dtd">
<svg version="1.1" id="图层_1" xmlns="http://www.w3.org/2000/svg" xmlns:xlink="http://www.w3.org/1999/xlink" x="0px" y="0px"
	 width="351.825px" height="349.884px" viewBox="0 0 351.825 349.884" enable-background="new 0 0 351.825 349.884"
	 xml:space="preserve">
<g>
	<path fill="#693D15" d="M101.927,10.506c-4.437-4.377-11.583-4.329-15.959,0.108L10.669,86.938
		c-4.377,4.437-4.329,11.583,0.107,15.96l42.999,42.421c4.438,4.376,11.584,4.328,15.96-0.108l75.299-76.324
		c4.377-4.437,4.328-11.582-0.108-15.96L101.927,10.506z"/>
	
		<rect x="203.861" y="59.233" transform="matrix(0.7023 -0.7119 0.7119 0.7023 -91.825 224.638)" fill="#EA9E53" width="37.617" height="325.747"/>
	<path fill="#3F2307" d="M131.271,95.825c-3.943-3.891-10.295-3.848-14.187,0.096l-20.697,20.979
		c-3.89,3.943-3.848,10.295,0.097,14.186l0,0c3.944,3.892,10.295,3.848,14.187-0.095l20.696-20.979
		C135.257,106.068,135.216,99.716,131.271,95.825L131.271,95.825z"/>
	<path fill="#4C2C0F" d="M117.416,109.869c-3.833-3.78-10.006-3.738-13.785,0.094l-7.144,7.24
		c-3.781,3.833-3.739,10.004,0.094,13.785l0,0c3.83,3.782,10.003,3.74,13.784-0.094l7.144-7.239
		C121.29,119.823,121.247,113.65,117.416,109.869L117.416,109.869z"/>
	
		<ellipse transform="matrix(0.9333 -0.3592 0.3592 0.9333 -38.689 22.3958)" fill="#693D15" cx="40.92" cy="115.305" rx="40.826" ry="41.467"/>
	
		<ellipse transform="matrix(0.9333 -0.3592 0.3592 0.9333 -7.2712 43.6581)" fill="#3F2307" cx="113.845" cy="41.395" rx="40.826" ry="41.467"/>
</g>
</svg>
